<?xml version="1.0" encoding="UTF-8"?>
<svg version="1.1" xmlns="http://www.w3.org/2000/svg" width="512" height="238">
<path d="M0 0 C1.24330078 -0.01160156 1.24330078 -0.01160156 2.51171875 -0.0234375 C7.27092888 -0.00830488 11.02236974 0.48608505 15.5 2.25 C17.78973178 2.96456322 20.08142086 3.67288394 22.375 4.375 C23.52742187 4.72820313 24.67984375 5.08140625 25.8671875 5.4453125 C27.17042969 5.84363281 27.17042969 5.84363281 28.5 6.25 C28.5 6.91 28.5 7.57 28.5 8.25 C29.86125 8.683125 29.86125 8.683125 31.25 9.125 C33.82202908 10.01531776 36.11346766 10.96494413 38.5 12.25 C38.5 12.91 38.5 13.57 38.5 14.25 C39.056875 14.476875 39.61375 14.70375 40.1875 14.9375 C47.97627508 19.35815613 58.67619973 31.77859919 61.5 40.25 C62.139375 40.86875 62.77875 41.4875 63.4375 42.125 C65.64791243 44.40239462 66.50569366 46.26708098 67.5 49.25 C68.16 49.25 68.82 49.25 69.5 49.25 C70.88137335 50.92465856 72.18146716 52.66689132 73.4375 54.4375 C74.12714844 55.40042969 74.81679687 56.36335938 75.52734375 57.35546875 C76.78139649 59.19557387 77.98737454 61.07010139 79.125 62.984375 C80.43988734 65.35325654 80.43988734 65.35325654 82.5625 67.3125 C84.48990964 69.23990964 85.32837741 70.82864665 86.5 73.25 C87.11875 73.84554687 87.11875 73.84554687 87.75 74.453125 C90.28233938 77.0532949 92.31969999 80.00017396 94.4375 82.9375 C99.01636557 89.23906102 103.65842953 95.48872233 108.35131836 101.70581055 C109.74013526 103.54953949 111.12200828 105.39816906 112.5 107.25 C112.98243164 107.89453125 113.46486328 108.5390625 113.96191406 109.203125 C117.5 114.01671205 117.5 114.01671205 117.5 116.25 C118.49 116.58 119.48 116.91 120.5 117.25 C121.45098822 118.60855459 122.39122464 119.97617585 123.26953125 121.3828125 C124.7093768 123.56772099 126.3060102 125.57944446 127.9375 127.625 C130.7029151 131.12904093 133.0789153 134.71728995 135.375 138.5390625 C136.54195351 140.43949161 136.54195351 140.43949161 138.6875 142.4375 C140.7894939 144.5394939 141.56791985 146.45375955 142.5 149.25 C143.16 149.25 143.82 149.25 144.5 149.25 C145.49207083 150.66033797 146.47515863 152.07836654 147.3984375 153.53466797 C149.12880409 156.22916169 151.07355962 158.75600806 153 161.3125 C153.7528125 162.31410156 154.505625 163.31570312 155.28125 164.34765625 C156.37953125 165.78431641 156.37953125 165.78431641 157.5 167.25 C158.54414062 168.61898437 158.54414062 168.61898437 159.609375 170.015625 C161.66957431 172.450406 163.76829505 173.65650545 166.5 175.25 C166.5 175.91 166.5 176.57 166.5 177.25 C173.29809103 177.89743724 176.93586091 177.09800328 182.4375 173.01953125 C185.53059986 170.36579217 188.04817517 167.49607795 190.5 164.25 C190.96792969 163.64414063 191.43585938 163.03828125 191.91796875 162.4140625 C193.46927961 160.37614743 194.98776784 158.31707994 196.5 156.25 C197.13035156 155.39148438 197.76070313 154.53296875 198.41015625 153.6484375 C202.34264261 148.26873554 206.19693309 142.84546131 209.95703125 137.34375 C211.5 135.25 211.5 135.25 212.9609375 133.79296875 C215.02026175 131.72841779 216.61698175 129.43355017 218.3125 127.0625 C221.25340715 122.97339338 224.22967744 118.91925209 227.2734375 114.90625 C228.39723936 113.3887596 229.45255509 111.82116737 230.5 110.25 C231.16 110.25 231.82 110.25 232.5 110.25 C232.73203125 109.55519531 232.9640625 108.86039062 233.203125 108.14453125 C234.75886553 104.67223085 236.89369068 101.88831894 239.25 98.9375 C240.15915934 97.77758288 241.0680149 96.61742759 241.9765625 95.45703125 C242.41387695 94.90225098 242.85119141 94.3474707 243.30175781 93.77587891 C249.31855149 86.11390652 254.98721389 78.16790055 260.6484375 70.2421875 C261.34195312 69.27539062 262.03546875 68.30859375 262.75 67.3125 C263.68585938 65.99958984 263.68585938 65.99958984 264.640625 64.66015625 C266.5 62.25 266.5 62.25 268.6328125 60.12109375 C270.65712244 58.09254885 271.74633798 55.95388384 273.09375 53.44921875 C275.38062281 49.87280377 278.19126751 46.71204641 280.97119141 43.51367188 C283.25047256 40.86676473 284.9865238 38.38505784 286.5 35.25 C287.16 34.92 287.82 34.59 288.5 34.25 C289.015625 33.30125 289.53125 32.3525 290.0625 31.375 C294.4692624 23.41651865 301.29521942 13.61071534 310.3359375 10.6484375 C317.56724926 9.31704075 325.14866805 9.34148803 331.5 13.25 C337.84785433 18.18853593 341.44970903 23.18962745 342.5 31.25 C342.73218355 38.2155066 340.93781902 43.26154106 337.5 49.25 C336.84 49.25 336.18 49.25 335.5 49.25 C335.29375 49.91 335.0875 50.57 334.875 51.25 C333.29545644 54.69627686 331.25696879 57.40229511 328.9375 60.3828125 C327.72583894 61.95665485 326.60176115 63.59735828 325.5 65.25 C324.84 65.25 324.18 65.25 323.5 65.25 C323.21125 66.013125 322.9225 66.77625 322.625 67.5625 C321.5 70.25 321.5 70.25 319.5 73.25 C318.84 73.25 318.18 73.25 317.5 73.25 C317.26539063 73.94867188 317.03078125 74.64734375 316.7890625 75.3671875 C315.26615086 78.77297171 313.18969941 81.48662368 310.875 84.375 C309.96758649 85.53033711 309.06135264 86.68660164 308.15625 87.84375 C307.48142578 88.70419922 307.48142578 88.70419922 306.79296875 89.58203125 C303.58414267 93.72151384 300.55893216 97.99943563 297.5 102.25 C296.0848542 104.20943264 294.6682012 106.16777767 293.25 108.125 C292.62609375 108.98867187 292.0021875 109.85234375 291.359375 110.7421875 C290.07406927 112.4757301 288.75084823 114.18156605 287.3984375 115.86328125 C285.36613385 118.33551742 285.36613385 118.33551742 283.375 121.5625 C282.75625 122.449375 282.1375 123.33625 281.5 124.25 C280.84 124.25 280.18 124.25 279.5 124.25 C279.190625 125.24 279.190625 125.24 278.875 126.25 C277.29545644 129.69627686 275.25696879 132.40229511 272.9375 135.3828125 C271.72583894 136.95665485 270.60176115 138.59735828 269.5 140.25 C268.84 140.25 268.18 140.25 267.5 140.25 C267.2525 140.9925 267.005 141.735 266.75 142.5 C265.38191038 145.50979717 263.82189894 146.92810106 261.5 149.25 C260.60600544 150.87243458 259.71341034 152.4956777 258.83203125 154.125 C256.45892979 157.91082755 253.4879956 161.23075154 250.62109375 164.6484375 C248.94912056 166.69914494 247.46568679 168.70299122 246.0625 170.9375 C245.546875 171.700625 245.03125 172.46375 244.5 173.25 C243.84 173.25 243.18 173.25 242.5 173.25 C242.38301758 173.84458008 242.26603516 174.43916016 242.14550781 175.05175781 C241.10020565 178.6114782 238.57339151 181.18054422 236.25 184 C233.07474343 187.92474995 230.01927626 191.77264001 227.4375 196.125 C226.798125 197.15625 226.15875 198.1875 225.5 199.25 C224.84 199.25 224.18 199.25 223.5 199.25 C223.26667969 199.97058594 223.03335937 200.69117188 222.79296875 201.43359375 C219.39413246 208.83710121 211.817418 214.89618342 204.5 218.25 C203.84 218.25 203.18 218.25 202.5 218.25 C202.5 218.91 202.5 219.57 202.5 220.25 C200.29195441 221.04247664 198.08357503 221.8340013 195.875 222.625 C194.64523437 223.06585938 193.41546875 223.50671875 192.1484375 223.9609375 C190.94445312 224.38632813 189.74046875 224.81171875 188.5 225.25 C187.55511719 225.62640625 186.61023438 226.0028125 185.63671875 226.390625 C174.04961987 229.56517264 160.38905227 227.86272353 149.5 223.25 C148.63375 222.88777344 147.7675 222.52554688 146.875 222.15234375 C136.67413502 217.45038255 127.00903365 210.50883931 120.5 201.25 C120.24089844 200.15945312 120.24089844 200.15945312 119.9765625 199.046875 C119.81929688 198.45390625 119.66203125 197.8609375 119.5 197.25 C118.51 196.92 117.52 196.59 116.5 196.25 C115.11690149 194.2840864 113.79216902 192.27683916 112.5 190.25 C111.66608908 189.14315486 110.81806007 188.04682098 109.95703125 186.9609375 C109.30637695 186.13722656 109.30637695 186.13722656 108.64257812 185.296875 C107.74750692 184.17179283 106.8489993 183.0494369 105.94726562 181.9296875 C103.67072683 179.03537731 102.32691779 176.80825232 101.5 173.25 C100.51 172.92 99.52 172.59 98.5 172.25 C94.5 166.87857143 94.5 166.87857143 94.5 164.25 C93.84 164.25 93.18 164.25 92.5 164.25 C91.08495968 162.27905098 89.78781306 160.30297472 88.5 158.25 C87.50671428 156.70399884 86.50637289 155.16251414 85.5 153.625 C85.025625 152.89023438 84.55125 152.15546875 84.0625 151.3984375 C82.39195856 149.10144302 80.50832697 147.25448696 78.5 145.25 C77.23852495 143.60765133 76.01118914 141.93871929 74.8125 140.25 C69.97408057 133.50144105 64.98707769 126.8694792 59.984375 120.2421875 C58.48331684 118.24940338 56.99105847 116.25028156 55.5 114.25 C55.06300781 113.66718262 54.62601563 113.08436523 54.17578125 112.48388672 C52.65391037 110.45123044 51.13903698 108.41349632 49.625 106.375 C49.12371582 105.70750732 48.62243164 105.04001465 48.10595703 104.35229492 C44.5 99.47757523 44.5 99.47757523 44.5 97.25 C43.51 96.92 42.52 96.59 41.5 96.25 C40.4627889 94.60623271 39.47168076 92.93333427 38.5 91.25 C36.20472367 88.18067264 33.76510237 85.22279292 31.3515625 82.24609375 C29.23376536 79.59884733 27.5812543 77.49376291 26.5 74.25 C25.571875 73.321875 25.571875 73.321875 24.625 72.375 C22.40905911 70.15905911 21.08488355 67.93741123 19.5 65.25 C18.50701729 64.24303161 17.50607148 63.24389143 16.5 62.25 C15.41341979 60.94018673 14.33028025 59.62751404 13.25 58.3125 C8.86750999 53.28280682 4.31129127 50.07561106 -2.5 49.25 C-2.5 49.91 -2.5 50.57 -2.5 51.25 C-3.69625 51.765625 -4.8925 52.28125 -6.125 52.8125 C-10.76950455 55.14292922 -13.43560774 58.12805932 -16.5 62.25 C-17.015625 62.93964844 -17.53125 63.62929687 -18.0625 64.33984375 C-19.08737991 65.71574502 -20.10835722 67.09456373 -21.125 68.4765625 C-22.5 70.25 -22.5 70.25 -24.625 72.3125 C-26.68086666 74.43689555 -27.94797015 76.7188065 -29.359375 79.30078125 C-31.41563481 82.8147321 -33.7589499 86.23484489 -36.5 89.25 C-37.16 89.25 -37.82 89.25 -38.5 89.25 C-38.78875 89.8275 -39.0775 90.405 -39.375 91 C-39.74625 91.7425 -40.1175 92.485 -40.5 93.25 C-40.83 93.971875 -41.16 94.69375 -41.5 95.4375 C-42.5 97.25 -42.5 97.25 -44.5 98.25 C-44.995 99.178125 -45.49 100.10625 -46 101.0625 C-48.7025403 106.0257204 -52.48576052 110.12824903 -56.16015625 114.3828125 C-58.53805663 117.14745936 -58.53805663 117.14745936 -60.18359375 120.1171875 C-60.61800781 120.82101563 -61.05242187 121.52484375 -61.5 122.25 C-62.16 122.25 -62.82 122.25 -63.5 122.25 C-63.73074219 122.94480469 -63.96148437 123.63960938 -64.19921875 124.35546875 C-65.76549435 127.84078472 -67.93384173 130.61061338 -70.3125 133.5625 C-73.21355549 137.2349194 -76.0110929 140.86324102 -78.4375 144.875 C-80.13072493 147.64573171 -81.29758949 149.04758949 -83.5 151.25 C-85.15187949 153.29665069 -86.77479767 155.35135673 -88.375 157.4375 C-88.82045166 158.01540283 -89.26590332 158.59330566 -89.72485352 159.1887207 C-92.13544433 162.34944961 -94.38706189 165.5263736 -96.4375 168.9375 C-98.5 172.25 -98.5 172.25 -101.5 174.25 C-102.38316184 175.84648486 -103.26351754 177.44459287 -104.12890625 179.05078125 C-106.50315903 182.85905565 -109.47818369 186.18722128 -112.37890625 189.6015625 C-114.55726051 192.18834521 -114.55726051 192.18834521 -116.15234375 195.0859375 C-116.81943359 196.15714844 -116.81943359 196.15714844 -117.5 197.25 C-118.16 197.25 -118.82 197.25 -119.5 197.25 C-119.76167969 197.98089844 -120.02335937 198.71179688 -120.29296875 199.46484375 C-123.39153679 206.61461402 -129.05028988 213.0794097 -136.0625 216.5 C-144.23253002 218.282552 -152.01117078 218.0601061 -159.5 214.25 C-163.60370699 210.79915549 -168.03918372 206.49987528 -168.82128906 200.98413086 C-168.89262013 198.43655695 -168.84971235 195.92149993 -168.75 193.375 C-168.73195312 192.49585938 -168.71390625 191.61671875 -168.6953125 190.7109375 C-168.64848379 188.5568168 -168.57674994 186.40326226 -168.5 184.25 C-167.84 184.25 -167.18 184.25 -166.5 184.25 C-166.40332031 183.5178125 -166.30664062 182.785625 -166.20703125 182.03125 C-165.40410221 178.87276671 -164.24627481 177.25403446 -162.1875 174.75 C-161.55585938 173.97011719 -160.92421875 173.19023437 -160.2734375 172.38671875 C-159.68820313 171.68160156 -159.10296875 170.97648438 -158.5 170.25 C-156.27957555 167.52204997 -154.27702744 164.90242513 -152.375 161.9375 C-151.75625 161.050625 -151.1375 160.16375 -150.5 159.25 C-149.84 159.25 -149.18 159.25 -148.5 159.25 C-148.26925781 158.55648437 -148.03851563 157.86296875 -147.80078125 157.1484375 C-146.23063293 153.6497887 -144.06571425 150.84646205 -141.6875 147.875 C-140.78407952 146.72871236 -139.88172507 145.58158371 -138.98046875 144.43359375 C-138.55040527 143.88687012 -138.1203418 143.34014648 -137.67724609 142.77685547 C-136.21308509 140.87787934 -134.84948041 138.91916943 -133.5 136.9375 C-132.84 136.050625 -132.18 135.16375 -131.5 134.25 C-130.84 134.25 -130.18 134.25 -129.5 134.25 C-129.43167969 133.71890625 -129.36335938 133.1878125 -129.29296875 132.640625 C-128.16681206 129.24551222 -126.02028131 126.75433303 -123.8125 124 C-122.89422895 122.83096656 -121.97625883 121.66169667 -121.05859375 120.4921875 C-120.61499512 119.93112305 -120.17139648 119.37005859 -119.71435547 118.79199219 C-113.59712498 111.02431471 -107.57126949 103.04224266 -102.1875 94.75 C-100.74095279 92.6069671 -99.30921423 91.05921423 -97.5 89.25 C-97.005 88.425 -96.51 87.6 -96 86.75 C-94.5 84.25 -94.5 84.25 -93.21484375 83.0234375 C-90.6661984 80.3877086 -88.65879474 77.37148668 -86.5625 74.375 C-83.6517038 70.22918832 -80.68212231 66.19500692 -77.5 62.25 C-76.84 61.26 -76.18 60.27 -75.5 59.25 C-74.84 59.25 -74.18 59.25 -73.5 59.25 C-73.38301758 58.65541992 -73.26603516 58.06083984 -73.14550781 57.44824219 C-72.10020565 53.8885218 -69.57339151 51.31945578 -67.25 48.5 C-64.07474343 44.57525005 -61.01927626 40.72735999 -58.4375 36.375 C-57.4784375 34.828125 -57.4784375 34.828125 -56.5 33.25 C-55.84 33.25 -55.18 33.25 -54.5 33.25 C-54.2421875 32.52425781 -53.984375 31.79851563 -53.71875 31.05078125 C-49.96811993 22.43154485 -42.3227485 15.2526354 -34.5 10.25 C-32.52203863 9.52053907 -30.52484089 8.8369104 -28.5 8.25 C-28.5 7.59 -28.5 6.93 -28.5 6.25 C-27.63117188 5.98445312 -26.76234375 5.71890625 -25.8671875 5.4453125 C-24.71476563 5.09210937 -23.56234375 4.73890625 -22.375 4.375 C-21.23804688 4.02695313 -20.10109375 3.67890625 -18.9296875 3.3203125 C-15.57218722 2.31813804 -15.57218722 2.31813804 -12.6640625 1.1328125 C-8.39764759 -0.05756993 -4.40680426 -0.04112104 0 0 Z " fill="#606060" transform="translate(168.5,5.75)"/>
<path d="M0 0 C0 0.66 0 1.32 0 2 C0.721875 2.226875 1.44375 2.45375 2.1875 2.6875 C8.52184298 5.64352672 11.42748525 10.7998838 14 17 C17.56695603 27.16582467 15.55104647 34.50268459 11 44 C7.6624535 49.29056135 3.61721034 52.35037248 -2 55 C-2.99 55 -3.98 55 -5 55 C-5 55.66 -5 56.32 -5 57 C-8.3603116 58.01534595 -11.43586286 58.13383137 -14.9375 58.125 C-15.95714844 58.12757813 -16.97679687 58.13015625 -18.02734375 58.1328125 C-20.79588725 58.00911936 -23.30539535 57.62526738 -26 57 C-26 56.34 -26 55.68 -26 55 C-27.36125 54.566875 -27.36125 54.566875 -28.75 54.125 C-36.64270261 51.39291063 -39.90590728 46.89934507 -43.8125 39.625 C-46.85442577 30.33912135 -46.33736096 21.78775096 -42.6875 12.75 C-38.16589302 5.3814553 -32.43039133 0.18267348 -24.078125 -2.65234375 C-15.61309374 -4.0684862 -7.88899962 -3.20908459 0 0 Z " fill="#31BC80" transform="translate(184,144)"/>
</svg>
